<?xml version="1.0" encoding="UTF-8" ?>
<svg version="1.1" width="48" height="48" xmlns="http://www.w3.org/2000/svg" shape-rendering="crispEdges">
<rect x="16" y="10" width="1" height="1" fill="#D2D3D5" />
<rect x="17" y="10" width="1" height="1" fill="#D2D3D5" />
<rect x="18" y="10" width="1" height="1" fill="#D2D3D5" />
<rect x="19" y="10" width="1" height="1" fill="#D2D3D5" />
<rect x="20" y="10" width="1" height="1" fill="#D2D3D5" />
<rect x="21" y="10" width="1" height="1" fill="#D2D3D5" />
<rect x="22" y="10" width="1" height="1" fill="#D2D3D5" />
<rect x="23" y="10" width="1" height="1" fill="#D2D3D5" />
<rect x="24" y="10" width="1" height="1" fill="#D2D3D5" />
<rect x="25" y="10" width="1" height="1" fill="#D2D3D5" />
<rect x="26" y="10" width="1" height="1" fill="#D2D3D5" />
<rect x="27" y="10" width="1" height="1" fill="#D2D3D5" />
<rect x="28" y="10" width="1" height="1" fill="#D2D3D5" />
<rect x="29" y="10" width="1" height="1" fill="#D2D3D5" />
<rect x="30" y="10" width="1" height="1" fill="#D2D3D5" />
<rect x="31" y="10" width="1" height="1" fill="#D2D3D5" />
<rect x="32" y="10" width="1" height="1" fill="#D2D3D5" />
<rect x="33" y="10" width="1" height="1" fill="#D2D3D5" />
<rect x="34" y="10" width="1" height="1" fill="#D2D3D5" />
<rect x="15" y="11" width="1" height="1" fill="#D2D3D5" />
<rect x="34" y="11" width="1" height="1" fill="#D2D3D5" />
<rect x="35" y="11" width="1" height="1" fill="#D2D3D5" />
<rect x="15" y="12" width="1" height="1" fill="#D2D3D5" />
<rect x="35" y="12" width="1" height="1" fill="#D2D3D5" />
<rect x="13" y="13" width="1" height="1" fill="#D2D3D5" />
<rect x="14" y="13" width="1" height="1" fill="#D2D3D5" />
<rect x="15" y="13" width="1" height="1" fill="#D2D3D5" />
<rect x="16" y="13" width="1" height="1" fill="#D2D3D5" />
<rect x="17" y="13" width="1" height="1" fill="#D2D3D5" />
<rect x="18" y="13" width="1" height="1" fill="#D2D3D5" />
<rect x="19" y="13" width="1" height="1" fill="#D2D3D5" />
<rect x="20" y="13" width="1" height="1" fill="#D2D3D5" />
<rect x="21" y="13" width="1" height="1" fill="#D2D3D5" />
<rect x="22" y="13" width="1" height="1" fill="#D2D3D5" />
<rect x="23" y="13" width="1" height="1" fill="#D2D3D5" />
<rect x="24" y="13" width="1" height="1" fill="#D2D3D5" />
<rect x="25" y="13" width="1" height="1" fill="#D2D3D5" />
<rect x="26" y="13" width="1" height="1" fill="#D2D3D5" />
<rect x="27" y="13" width="1" height="1" fill="#D2D3D5" />
<rect x="28" y="13" width="1" height="1" fill="#D2D3D5" />
<rect x="29" y="13" width="1" height="1" fill="#D2D3D5" />
<rect x="30" y="13" width="1" height="1" fill="#D2D3D5" />
<rect x="31" y="13" width="1" height="1" fill="#D2D3D5" />
<rect x="35" y="13" width="1" height="1" fill="#D2D3D5" />
<rect x="12" y="14" width="1" height="1" fill="#D2D3D5" />
<rect x="13" y="14" width="1" height="1" fill="#D2D3D5" />
<rect x="31" y="14" width="1" height="1" fill="#D2D3D5" />
<rect x="32" y="14" width="1" height="1" fill="#D2D3D5" />
<rect x="35" y="14" width="1" height="1" fill="#D2D3D5" />
<rect x="12" y="15" width="1" height="1" fill="#D2D3D5" />
<rect x="32" y="15" width="1" height="1" fill="#D2D3D5" />
<rect x="35" y="15" width="1" height="1" fill="#D2D3D5" />
<rect x="12" y="16" width="1" height="1" fill="#D2D3D5" />
<rect x="32" y="16" width="1" height="1" fill="#D2D3D5" />
<rect x="35" y="16" width="1" height="1" fill="#D2D3D5" />
<rect x="12" y="17" width="1" height="1" fill="#D2D3D5" />
<rect x="32" y="17" width="1" height="1" fill="#D2D3D5" />
<rect x="35" y="17" width="1" height="1" fill="#D2D3D5" />
<rect x="12" y="18" width="1" height="1" fill="#D2D3D5" />
<rect x="32" y="18" width="1" height="1" fill="#D2D3D5" />
<rect x="35" y="18" width="1" height="1" fill="#D2D3D5" />
<rect x="12" y="19" width="1" height="1" fill="#D2D3D5" />
<rect x="32" y="19" width="1" height="1" fill="#D2D3D5" />
<rect x="35" y="19" width="1" height="1" fill="#D2D3D5" />
<rect x="12" y="20" width="1" height="1" fill="#D2D3D5" />
<rect x="32" y="20" width="1" height="1" fill="#D2D3D5" />
<rect x="35" y="20" width="1" height="1" fill="#D2D3D5" />
<rect x="12" y="21" width="1" height="1" fill="#D2D3D5" />
<rect x="32" y="21" width="1" height="1" fill="#D2D3D5" />
<rect x="35" y="21" width="1" height="1" fill="#D2D3D5" />
<rect x="12" y="22" width="1" height="1" fill="#D2D3D5" />
<rect x="32" y="22" width="1" height="1" fill="#D2D3D5" />
<rect x="35" y="22" width="1" height="1" fill="#D2D3D5" />
<rect x="12" y="23" width="1" height="1" fill="#D2D3D5" />
<rect x="32" y="23" width="1" height="1" fill="#D2D3D5" />
<rect x="35" y="23" width="1" height="1" fill="#D2D3D5" />
<rect x="12" y="24" width="1" height="1" fill="#D2D3D5" />
<rect x="32" y="24" width="1" height="1" fill="#D2D3D5" />
<rect x="35" y="24" width="1" height="1" fill="#D2D3D5" />
<rect x="12" y="25" width="1" height="1" fill="#D2D3D5" />
<rect x="32" y="25" width="1" height="1" fill="#D2D3D5" />
<rect x="35" y="25" width="1" height="1" fill="#D2D3D5" />
<rect x="12" y="26" width="1" height="1" fill="#D2D3D5" />
<rect x="32" y="26" width="1" height="1" fill="#D2D3D5" />
<rect x="35" y="26" width="1" height="1" fill="#D2D3D5" />
<rect x="12" y="27" width="1" height="1" fill="#D2D3D5" />
<rect x="32" y="27" width="1" height="1" fill="#D2D3D5" />
<rect x="35" y="27" width="1" height="1" fill="#D2D3D5" />
<rect x="12" y="28" width="1" height="1" fill="#D2D3D5" />
<rect x="32" y="28" width="1" height="1" fill="#D2D3D5" />
<rect x="35" y="28" width="1" height="1" fill="#D2D3D5" />
<rect x="12" y="29" width="1" height="1" fill="#D2D3D5" />
<rect x="32" y="29" width="1" height="1" fill="#D2D3D5" />
<rect x="35" y="29" width="1" height="1" fill="#D2D3D5" />
<rect x="12" y="30" width="1" height="1" fill="#D2D3D5" />
<rect x="32" y="30" width="1" height="1" fill="#D2D3D5" />
<rect x="35" y="30" width="1" height="1" fill="#D2D3D5" />
<rect x="12" y="31" width="1" height="1" fill="#D2D3D5" />
<rect x="32" y="31" width="1" height="1" fill="#D2D3D5" />
<rect x="35" y="31" width="1" height="1" fill="#D2D3D5" />
<rect x="12" y="32" width="1" height="1" fill="#D2D3D5" />
<rect x="32" y="32" width="1" height="1" fill="#D2D3D5" />
<rect x="35" y="32" width="1" height="1" fill="#D2D3D5" />
<rect x="12" y="33" width="1" height="1" fill="#D2D3D5" />
<rect x="32" y="33" width="1" height="1" fill="#D2D3D5" />
<rect x="35" y="33" width="1" height="1" fill="#D2D3D5" />
<rect x="12" y="34" width="1" height="1" fill="#D2D3D5" />
<rect x="32" y="34" width="1" height="1" fill="#D2D3D5" />
<rect x="33" y="34" width="1" height="1" fill="#D2D3D5" />
<rect x="34" y="34" width="1" height="1" fill="#D2D3D5" />
<rect x="12" y="35" width="1" height="1" fill="#D2D3D5" />
<rect x="32" y="35" width="1" height="1" fill="#D2D3D5" />
<rect x="12" y="36" width="1" height="1" fill="#D2D3D5" />
<rect x="13" y="36" width="1" height="1" fill="#D2D3D5" />
<rect x="31" y="36" width="1" height="1" fill="#D2D3D5" />
<rect x="32" y="36" width="1" height="1" fill="#D2D3D5" />
<rect x="13" y="37" width="1" height="1" fill="#D2D3D5" />
<rect x="14" y="37" width="1" height="1" fill="#D2D3D5" />
<rect x="15" y="37" width="1" height="1" fill="#D2D3D5" />
<rect x="16" y="37" width="1" height="1" fill="#D2D3D5" />
<rect x="17" y="37" width="1" height="1" fill="#D2D3D5" />
<rect x="18" y="37" width="1" height="1" fill="#D2D3D5" />
<rect x="19" y="37" width="1" height="1" fill="#D2D3D5" />
<rect x="20" y="37" width="1" height="1" fill="#D2D3D5" />
<rect x="21" y="37" width="1" height="1" fill="#D2D3D5" />
<rect x="22" y="37" width="1" height="1" fill="#D2D3D5" />
<rect x="23" y="37" width="1" height="1" fill="#D2D3D5" />
<rect x="24" y="37" width="1" height="1" fill="#D2D3D5" />
<rect x="25" y="37" width="1" height="1" fill="#D2D3D5" />
<rect x="26" y="37" width="1" height="1" fill="#D2D3D5" />
<rect x="27" y="37" width="1" height="1" fill="#D2D3D5" />
<rect x="28" y="37" width="1" height="1" fill="#D2D3D5" />
<rect x="29" y="37" width="1" height="1" fill="#D2D3D5" />
<rect x="30" y="37" width="1" height="1" fill="#D2D3D5" />
<rect x="31" y="37" width="1" height="1" fill="#D2D3D5" />
</svg>