<?xml version="1.0" encoding="UTF-8" ?>
<svg version="1.1" width="27" height="27" xmlns="http://www.w3.org/2000/svg" shape-rendering="crispEdges">
<rect x="9" y="0" width="13" height="1" fill="#D2D3D5" />
<rect x="9" y="1" width="1" height="22" fill="#D2D3D5" />
<rect x="10" y="1" width="10" height="21" fill="#FFFFFF" />
<rect x="20" y="1" width="1" height="5" fill="#D2D3D5" />
<rect x="21" y="1" width="1" height="4" fill="#FFFFFF" />
<rect x="22" y="1" width="1" height="1" fill="#D2D3D5" />
<rect x="0" y="2" width="9" height="1" fill="#D2D3D5" />
<rect x="22" y="2" width="1" height="3" fill="#FFFFFF" />
<rect x="23" y="2" width="1" height="1" fill="#D2D3D5" />
<rect x="0" y="3" width="1" height="24" fill="#D2D3D5" />
<rect x="1" y="3" width="8" height="23" fill="#FFFFFF" />
<rect x="23" y="3" width="1" height="2" fill="#FFFFFF" />
<rect x="24" y="3" width="1" height="1" fill="#D2D3D5" />
<rect x="24" y="4" width="1" height="1" fill="#FFFFFF" />
<rect x="25" y="4" width="1" height="2" fill="#D2D3D5" />
<rect x="21" y="5" width="4" height="1" fill="#D2D3D5" />
<rect x="26" y="5" width="1" height="18" fill="#D2D3D5" />
<rect x="20" y="6" width="6" height="16" fill="#FFFFFF" />
<rect x="10" y="22" width="16" height="1" fill="#D2D3D5" />
<rect x="9" y="23" width="8" height="3" fill="#FFFFFF" />
<rect x="17" y="23" width="1" height="4" fill="#D2D3D5" />
<rect x="1" y="26" width="16" height="1" fill="#D2D3D5" />
</svg>