<?xml version="1.0" encoding="UTF-8" ?>
<svg version="1.1" width="48" height="48" xmlns="http://www.w3.org/2000/svg" shape-rendering="crispEdges">
<rect x="27" y="15" width="1" height="1" fill="#D2D3D5" />
<rect x="28" y="15" width="1" height="1" fill="#D2D3D5" />
<rect x="29" y="15" width="1" height="1" fill="#D2D3D5" />
<rect x="30" y="15" width="1" height="1" fill="#D2D3D5" />
<rect x="31" y="15" width="1" height="1" fill="#D2D3D5" />
<rect x="32" y="15" width="1" height="1" fill="#D2D3D5" />
<rect x="28" y="16" width="1" height="1" fill="#D2D3D5" />
<rect x="29" y="16" width="1" height="1" fill="#D2D3D5" />
<rect x="30" y="16" width="1" height="1" fill="#D2D3D5" />
<rect x="31" y="16" width="1" height="1" fill="#D2D3D5" />
<rect x="32" y="16" width="1" height="1" fill="#D2D3D5" />
<rect x="16" y="17" width="1" height="1" fill="#D2D3D5" />
<rect x="17" y="17" width="1" height="1" fill="#D2D3D5" />
<rect x="18" y="17" width="1" height="1" fill="#D2D3D5" />
<rect x="19" y="17" width="1" height="1" fill="#D2D3D5" />
<rect x="20" y="17" width="1" height="1" fill="#D2D3D5" />
<rect x="21" y="17" width="1" height="1" fill="#D2D3D5" />
<rect x="22" y="17" width="1" height="1" fill="#D2D3D5" />
<rect x="23" y="17" width="1" height="1" fill="#D2D3D5" />
<rect x="24" y="17" width="1" height="1" fill="#D2D3D5" />
<rect x="29" y="17" width="1" height="1" fill="#D2D3D5" />
<rect x="30" y="17" width="1" height="1" fill="#D2D3D5" />
<rect x="31" y="17" width="1" height="1" fill="#D2D3D5" />
<rect x="32" y="17" width="1" height="1" fill="#D2D3D5" />
<rect x="15" y="18" width="1" height="1" fill="#D2D3D5" />
<rect x="16" y="18" width="1" height="1" fill="#D2D3D5" />
<rect x="28" y="18" width="1" height="1" fill="#D2D3D5" />
<rect x="29" y="18" width="1" height="1" fill="#D2D3D5" />
<rect x="30" y="18" width="1" height="1" fill="#D2D3D5" />
<rect x="31" y="18" width="1" height="1" fill="#D2D3D5" />
<rect x="32" y="18" width="1" height="1" fill="#D2D3D5" />
<rect x="15" y="19" width="1" height="1" fill="#D2D3D5" />
<rect x="27" y="19" width="1" height="1" fill="#D2D3D5" />
<rect x="28" y="19" width="1" height="1" fill="#D2D3D5" />
<rect x="29" y="19" width="1" height="1" fill="#D2D3D5" />
<rect x="31" y="19" width="1" height="1" fill="#D2D3D5" />
<rect x="32" y="19" width="1" height="1" fill="#D2D3D5" />
<rect x="15" y="20" width="1" height="1" fill="#D2D3D5" />
<rect x="26" y="20" width="1" height="1" fill="#D2D3D5" />
<rect x="27" y="20" width="1" height="1" fill="#D2D3D5" />
<rect x="28" y="20" width="1" height="1" fill="#D2D3D5" />
<rect x="32" y="20" width="1" height="1" fill="#D2D3D5" />
<rect x="15" y="21" width="1" height="1" fill="#D2D3D5" />
<rect x="25" y="21" width="1" height="1" fill="#D2D3D5" />
<rect x="26" y="21" width="1" height="1" fill="#D2D3D5" />
<rect x="27" y="21" width="1" height="1" fill="#D2D3D5" />
<rect x="15" y="22" width="1" height="1" fill="#D2D3D5" />
<rect x="24" y="22" width="1" height="1" fill="#D2D3D5" />
<rect x="25" y="22" width="1" height="1" fill="#D2D3D5" />
<rect x="26" y="22" width="1" height="1" fill="#D2D3D5" />
<rect x="15" y="23" width="1" height="1" fill="#D2D3D5" />
<rect x="23" y="23" width="1" height="1" fill="#D2D3D5" />
<rect x="24" y="23" width="1" height="1" fill="#D2D3D5" />
<rect x="25" y="23" width="1" height="1" fill="#D2D3D5" />
<rect x="30" y="23" width="1" height="1" fill="#D2D3D5" />
<rect x="15" y="24" width="1" height="1" fill="#D2D3D5" />
<rect x="23" y="24" width="1" height="1" fill="#D2D3D5" />
<rect x="24" y="24" width="1" height="1" fill="#D2D3D5" />
<rect x="30" y="24" width="1" height="1" fill="#D2D3D5" />
<rect x="15" y="25" width="1" height="1" fill="#D2D3D5" />
<rect x="30" y="25" width="1" height="1" fill="#D2D3D5" />
<rect x="15" y="26" width="1" height="1" fill="#D2D3D5" />
<rect x="30" y="26" width="1" height="1" fill="#D2D3D5" />
<rect x="15" y="27" width="1" height="1" fill="#D2D3D5" />
<rect x="30" y="27" width="1" height="1" fill="#D2D3D5" />
<rect x="15" y="28" width="1" height="1" fill="#D2D3D5" />
<rect x="30" y="28" width="1" height="1" fill="#D2D3D5" />
<rect x="15" y="29" width="1" height="1" fill="#D2D3D5" />
<rect x="30" y="29" width="1" height="1" fill="#D2D3D5" />
<rect x="15" y="30" width="1" height="1" fill="#D2D3D5" />
<rect x="30" y="30" width="1" height="1" fill="#D2D3D5" />
<rect x="15" y="31" width="1" height="1" fill="#D2D3D5" />
<rect x="16" y="31" width="1" height="1" fill="#D2D3D5" />
<rect x="29" y="31" width="1" height="1" fill="#D2D3D5" />
<rect x="30" y="31" width="1" height="1" fill="#D2D3D5" />
<rect x="16" y="32" width="1" height="1" fill="#D2D3D5" />
<rect x="17" y="32" width="1" height="1" fill="#D2D3D5" />
<rect x="18" y="32" width="1" height="1" fill="#D2D3D5" />
<rect x="19" y="32" width="1" height="1" fill="#D2D3D5" />
<rect x="20" y="32" width="1" height="1" fill="#D2D3D5" />
<rect x="21" y="32" width="1" height="1" fill="#D2D3D5" />
<rect x="22" y="32" width="1" height="1" fill="#D2D3D5" />
<rect x="23" y="32" width="1" height="1" fill="#D2D3D5" />
<rect x="24" y="32" width="1" height="1" fill="#D2D3D5" />
<rect x="25" y="32" width="1" height="1" fill="#D2D3D5" />
<rect x="26" y="32" width="1" height="1" fill="#D2D3D5" />
<rect x="27" y="32" width="1" height="1" fill="#D2D3D5" />
<rect x="28" y="32" width="1" height="1" fill="#D2D3D5" />
<rect x="29" y="32" width="1" height="1" fill="#D2D3D5" />
</svg>