<?xml version="1.0" encoding="UTF-8" ?>
<svg version="1.1" width="48" height="48" xmlns="http://www.w3.org/2000/svg" shape-rendering="crispEdges">
<rect x="6" y="17" width="1" height="1" fill="#D2D3D5" />
<rect x="7" y="17" width="1" height="1" fill="#D2D3D5" />
<rect x="8" y="17" width="1" height="1" fill="#D2D3D5" />
<rect x="9" y="17" width="1" height="1" fill="#D2D3D5" />
<rect x="22" y="17" width="1" height="1" fill="#D2D3D5" />
<rect x="23" y="17" width="1" height="1" fill="#D2D3D5" />
<rect x="24" y="17" width="1" height="1" fill="#D2D3D5" />
<rect x="25" y="17" width="1" height="1" fill="#D2D3D5" />
<rect x="38" y="17" width="1" height="1" fill="#D2D3D5" />
<rect x="39" y="17" width="1" height="1" fill="#D2D3D5" />
<rect x="40" y="17" width="1" height="1" fill="#D2D3D5" />
<rect x="41" y="17" width="1" height="1" fill="#D2D3D5" />
<rect x="4" y="18" width="1" height="1" fill="#D2D3D5" />
<rect x="5" y="18" width="1" height="1" fill="#D2D3D5" />
<rect x="6" y="18" width="1" height="1" fill="#D2D3D5" />
<rect x="7" y="18" width="1" height="1" fill="#D2D3D5" />
<rect x="8" y="18" width="1" height="1" fill="#D2D3D5" />
<rect x="9" y="18" width="1" height="1" fill="#D2D3D5" />
<rect x="10" y="18" width="1" height="1" fill="#D2D3D5" />
<rect x="11" y="18" width="1" height="1" fill="#D2D3D5" />
<rect x="20" y="18" width="1" height="1" fill="#D2D3D5" />
<rect x="21" y="18" width="1" height="1" fill="#D2D3D5" />
<rect x="22" y="18" width="1" height="1" fill="#D2D3D5" />
<rect x="23" y="18" width="1" height="1" fill="#D2D3D5" />
<rect x="24" y="18" width="1" height="1" fill="#D2D3D5" />
<rect x="25" y="18" width="1" height="1" fill="#D2D3D5" />
<rect x="26" y="18" width="1" height="1" fill="#D2D3D5" />
<rect x="27" y="18" width="1" height="1" fill="#D2D3D5" />
<rect x="36" y="18" width="1" height="1" fill="#D2D3D5" />
<rect x="37" y="18" width="1" height="1" fill="#D2D3D5" />
<rect x="38" y="18" width="1" height="1" fill="#D2D3D5" />
<rect x="39" y="18" width="1" height="1" fill="#D2D3D5" />
<rect x="40" y="18" width="1" height="1" fill="#D2D3D5" />
<rect x="41" y="18" width="1" height="1" fill="#D2D3D5" />
<rect x="42" y="18" width="1" height="1" fill="#D2D3D5" />
<rect x="43" y="18" width="1" height="1" fill="#D2D3D5" />
<rect x="3" y="19" width="1" height="1" fill="#D2D3D5" />
<rect x="4" y="19" width="1" height="1" fill="#D2D3D5" />
<rect x="5" y="19" width="1" height="1" fill="#D2D3D5" />
<rect x="6" y="19" width="1" height="1" fill="#D2D3D5" />
<rect x="7" y="19" width="1" height="1" fill="#D2D3D5" />
<rect x="8" y="19" width="1" height="1" fill="#D2D3D5" />
<rect x="9" y="19" width="1" height="1" fill="#D2D3D5" />
<rect x="10" y="19" width="1" height="1" fill="#D2D3D5" />
<rect x="11" y="19" width="1" height="1" fill="#D2D3D5" />
<rect x="12" y="19" width="1" height="1" fill="#D2D3D5" />
<rect x="19" y="19" width="1" height="1" fill="#D2D3D5" />
<rect x="20" y="19" width="1" height="1" fill="#D2D3D5" />
<rect x="21" y="19" width="1" height="1" fill="#D2D3D5" />
<rect x="22" y="19" width="1" height="1" fill="#D2D3D5" />
<rect x="23" y="19" width="1" height="1" fill="#D2D3D5" />
<rect x="24" y="19" width="1" height="1" fill="#D2D3D5" />
<rect x="25" y="19" width="1" height="1" fill="#D2D3D5" />
<rect x="26" y="19" width="1" height="1" fill="#D2D3D5" />
<rect x="27" y="19" width="1" height="1" fill="#D2D3D5" />
<rect x="28" y="19" width="1" height="1" fill="#D2D3D5" />
<rect x="35" y="19" width="1" height="1" fill="#D2D3D5" />
<rect x="36" y="19" width="1" height="1" fill="#D2D3D5" />
<rect x="37" y="19" width="1" height="1" fill="#D2D3D5" />
<rect x="38" y="19" width="1" height="1" fill="#D2D3D5" />
<rect x="39" y="19" width="1" height="1" fill="#D2D3D5" />
<rect x="40" y="19" width="1" height="1" fill="#D2D3D5" />
<rect x="41" y="19" width="1" height="1" fill="#D2D3D5" />
<rect x="42" y="19" width="1" height="1" fill="#D2D3D5" />
<rect x="43" y="19" width="1" height="1" fill="#D2D3D5" />
<rect x="44" y="19" width="1" height="1" fill="#D2D3D5" />
<rect x="2" y="20" width="1" height="1" fill="#D2D3D5" />
<rect x="3" y="20" width="1" height="1" fill="#D2D3D5" />
<rect x="4" y="20" width="1" height="1" fill="#D2D3D5" />
<rect x="5" y="20" width="1" height="1" fill="#D2D3D5" />
<rect x="6" y="20" width="1" height="1" fill="#D2D3D5" />
<rect x="7" y="20" width="1" height="1" fill="#D2D3D5" />
<rect x="8" y="20" width="1" height="1" fill="#D2D3D5" />
<rect x="9" y="20" width="1" height="1" fill="#D2D3D5" />
<rect x="10" y="20" width="1" height="1" fill="#D2D3D5" />
<rect x="11" y="20" width="1" height="1" fill="#D2D3D5" />
<rect x="12" y="20" width="1" height="1" fill="#D2D3D5" />
<rect x="13" y="20" width="1" height="1" fill="#D2D3D5" />
<rect x="18" y="20" width="1" height="1" fill="#D2D3D5" />
<rect x="19" y="20" width="1" height="1" fill="#D2D3D5" />
<rect x="20" y="20" width="1" height="1" fill="#D2D3D5" />
<rect x="21" y="20" width="1" height="1" fill="#D2D3D5" />
<rect x="22" y="20" width="1" height="1" fill="#D2D3D5" />
<rect x="23" y="20" width="1" height="1" fill="#D2D3D5" />
<rect x="24" y="20" width="1" height="1" fill="#D2D3D5" />
<rect x="25" y="20" width="1" height="1" fill="#D2D3D5" />
<rect x="26" y="20" width="1" height="1" fill="#D2D3D5" />
<rect x="27" y="20" width="1" height="1" fill="#D2D3D5" />
<rect x="28" y="20" width="1" height="1" fill="#D2D3D5" />
<rect x="29" y="20" width="1" height="1" fill="#D2D3D5" />
<rect x="34" y="20" width="1" height="1" fill="#D2D3D5" />
<rect x="35" y="20" width="1" height="1" fill="#D2D3D5" />
<rect x="36" y="20" width="1" height="1" fill="#D2D3D5" />
<rect x="37" y="20" width="1" height="1" fill="#D2D3D5" />
<rect x="38" y="20" width="1" height="1" fill="#D2D3D5" />
<rect x="39" y="20" width="1" height="1" fill="#D2D3D5" />
<rect x="40" y="20" width="1" height="1" fill="#D2D3D5" />
<rect x="41" y="20" width="1" height="1" fill="#D2D3D5" />
<rect x="42" y="20" width="1" height="1" fill="#D2D3D5" />
<rect x="43" y="20" width="1" height="1" fill="#D2D3D5" />
<rect x="44" y="20" width="1" height="1" fill="#D2D3D5" />
<rect x="45" y="20" width="1" height="1" fill="#D2D3D5" />
<rect x="2" y="21" width="1" height="1" fill="#D2D3D5" />
<rect x="3" y="21" width="1" height="1" fill="#D2D3D5" />
<rect x="4" y="21" width="1" height="1" fill="#D2D3D5" />
<rect x="5" y="21" width="1" height="1" fill="#D2D3D5" />
<rect x="6" y="21" width="1" height="1" fill="#D2D3D5" />
<rect x="7" y="21" width="1" height="1" fill="#D2D3D5" />
<rect x="8" y="21" width="1" height="1" fill="#D2D3D5" />
<rect x="9" y="21" width="1" height="1" fill="#D2D3D5" />
<rect x="10" y="21" width="1" height="1" fill="#D2D3D5" />
<rect x="11" y="21" width="1" height="1" fill="#D2D3D5" />
<rect x="12" y="21" width="1" height="1" fill="#D2D3D5" />
<rect x="13" y="21" width="1" height="1" fill="#D2D3D5" />
<rect x="18" y="21" width="1" height="1" fill="#D2D3D5" />
<rect x="19" y="21" width="1" height="1" fill="#D2D3D5" />
<rect x="20" y="21" width="1" height="1" fill="#D2D3D5" />
<rect x="21" y="21" width="1" height="1" fill="#D2D3D5" />
<rect x="22" y="21" width="1" height="1" fill="#D2D3D5" />
<rect x="23" y="21" width="1" height="1" fill="#D2D3D5" />
<rect x="24" y="21" width="1" height="1" fill="#D2D3D5" />
<rect x="25" y="21" width="1" height="1" fill="#D2D3D5" />
<rect x="26" y="21" width="1" height="1" fill="#D2D3D5" />
<rect x="27" y="21" width="1" height="1" fill="#D2D3D5" />
<rect x="28" y="21" width="1" height="1" fill="#D2D3D5" />
<rect x="29" y="21" width="1" height="1" fill="#D2D3D5" />
<rect x="34" y="21" width="1" height="1" fill="#D2D3D5" />
<rect x="35" y="21" width="1" height="1" fill="#D2D3D5" />
<rect x="36" y="21" width="1" height="1" fill="#D2D3D5" />
<rect x="37" y="21" width="1" height="1" fill="#D2D3D5" />
<rect x="38" y="21" width="1" height="1" fill="#D2D3D5" />
<rect x="39" y="21" width="1" height="1" fill="#D2D3D5" />
<rect x="40" y="21" width="1" height="1" fill="#D2D3D5" />
<rect x="41" y="21" width="1" height="1" fill="#D2D3D5" />
<rect x="42" y="21" width="1" height="1" fill="#D2D3D5" />
<rect x="43" y="21" width="1" height="1" fill="#D2D3D5" />
<rect x="44" y="21" width="1" height="1" fill="#D2D3D5" />
<rect x="45" y="21" width="1" height="1" fill="#D2D3D5" />
<rect x="1" y="22" width="1" height="1" fill="#D2D3D5" />
<rect x="2" y="22" width="1" height="1" fill="#D2D3D5" />
<rect x="3" y="22" width="1" height="1" fill="#D2D3D5" />
<rect x="4" y="22" width="1" height="1" fill="#D2D3D5" />
<rect x="5" y="22" width="1" height="1" fill="#D2D3D5" />
<rect x="6" y="22" width="1" height="1" fill="#D2D3D5" />
<rect x="7" y="22" width="1" height="1" fill="#D2D3D5" />
<rect x="8" y="22" width="1" height="1" fill="#D2D3D5" />
<rect x="9" y="22" width="1" height="1" fill="#D2D3D5" />
<rect x="10" y="22" width="1" height="1" fill="#D2D3D5" />
<rect x="11" y="22" width="1" height="1" fill="#D2D3D5" />
<rect x="12" y="22" width="1" height="1" fill="#D2D3D5" />
<rect x="13" y="22" width="1" height="1" fill="#D2D3D5" />
<rect x="14" y="22" width="1" height="1" fill="#D2D3D5" />
<rect x="17" y="22" width="1" height="1" fill="#D2D3D5" />
<rect x="18" y="22" width="1" height="1" fill="#D2D3D5" />
<rect x="19" y="22" width="1" height="1" fill="#D2D3D5" />
<rect x="20" y="22" width="1" height="1" fill="#D2D3D5" />
<rect x="21" y="22" width="1" height="1" fill="#D2D3D5" />
<rect x="22" y="22" width="1" height="1" fill="#D2D3D5" />
<rect x="23" y="22" width="1" height="1" fill="#D2D3D5" />
<rect x="24" y="22" width="1" height="1" fill="#D2D3D5" />
<rect x="25" y="22" width="1" height="1" fill="#D2D3D5" />
<rect x="26" y="22" width="1" height="1" fill="#D2D3D5" />
<rect x="27" y="22" width="1" height="1" fill="#D2D3D5" />
<rect x="28" y="22" width="1" height="1" fill="#D2D3D5" />
<rect x="29" y="22" width="1" height="1" fill="#D2D3D5" />
<rect x="30" y="22" width="1" height="1" fill="#D2D3D5" />
<rect x="33" y="22" width="1" height="1" fill="#D2D3D5" />
<rect x="34" y="22" width="1" height="1" fill="#D2D3D5" />
<rect x="35" y="22" width="1" height="1" fill="#D2D3D5" />
<rect x="36" y="22" width="1" height="1" fill="#D2D3D5" />
<rect x="37" y="22" width="1" height="1" fill="#D2D3D5" />
<rect x="38" y="22" width="1" height="1" fill="#D2D3D5" />
<rect x="39" y="22" width="1" height="1" fill="#D2D3D5" />
<rect x="40" y="22" width="1" height="1" fill="#D2D3D5" />
<rect x="41" y="22" width="1" height="1" fill="#D2D3D5" />
<rect x="42" y="22" width="1" height="1" fill="#D2D3D5" />
<rect x="43" y="22" width="1" height="1" fill="#D2D3D5" />
<rect x="44" y="22" width="1" height="1" fill="#D2D3D5" />
<rect x="45" y="22" width="1" height="1" fill="#D2D3D5" />
<rect x="46" y="22" width="1" height="1" fill="#D2D3D5" />
<rect x="1" y="23" width="1" height="1" fill="#D2D3D5" />
<rect x="2" y="23" width="1" height="1" fill="#D2D3D5" />
<rect x="3" y="23" width="1" height="1" fill="#D2D3D5" />
<rect x="4" y="23" width="1" height="1" fill="#D2D3D5" />
<rect x="5" y="23" width="1" height="1" fill="#D2D3D5" />
<rect x="6" y="23" width="1" height="1" fill="#D2D3D5" />
<rect x="7" y="23" width="1" height="1" fill="#D2D3D5" />
<rect x="8" y="23" width="1" height="1" fill="#D2D3D5" />
<rect x="9" y="23" width="1" height="1" fill="#D2D3D5" />
<rect x="10" y="23" width="1" height="1" fill="#D2D3D5" />
<rect x="11" y="23" width="1" height="1" fill="#D2D3D5" />
<rect x="12" y="23" width="1" height="1" fill="#D2D3D5" />
<rect x="13" y="23" width="1" height="1" fill="#D2D3D5" />
<rect x="14" y="23" width="1" height="1" fill="#D2D3D5" />
<rect x="17" y="23" width="1" height="1" fill="#D2D3D5" />
<rect x="18" y="23" width="1" height="1" fill="#D2D3D5" />
<rect x="19" y="23" width="1" height="1" fill="#D2D3D5" />
<rect x="20" y="23" width="1" height="1" fill="#D2D3D5" />
<rect x="21" y="23" width="1" height="1" fill="#D2D3D5" />
<rect x="22" y="23" width="1" height="1" fill="#D2D3D5" />
<rect x="23" y="23" width="1" height="1" fill="#D2D3D5" />
<rect x="24" y="23" width="1" height="1" fill="#D2D3D5" />
<rect x="25" y="23" width="1" height="1" fill="#D2D3D5" />
<rect x="26" y="23" width="1" height="1" fill="#D2D3D5" />
<rect x="27" y="23" width="1" height="1" fill="#D2D3D5" />
<rect x="28" y="23" width="1" height="1" fill="#D2D3D5" />
<rect x="29" y="23" width="1" height="1" fill="#D2D3D5" />
<rect x="30" y="23" width="1" height="1" fill="#D2D3D5" />
<rect x="33" y="23" width="1" height="1" fill="#D2D3D5" />
<rect x="34" y="23" width="1" height="1" fill="#D2D3D5" />
<rect x="35" y="23" width="1" height="1" fill="#D2D3D5" />
<rect x="36" y="23" width="1" height="1" fill="#D2D3D5" />
<rect x="37" y="23" width="1" height="1" fill="#D2D3D5" />
<rect x="38" y="23" width="1" height="1" fill="#D2D3D5" />
<rect x="39" y="23" width="1" height="1" fill="#D2D3D5" />
<rect x="40" y="23" width="1" height="1" fill="#D2D3D5" />
<rect x="41" y="23" width="1" height="1" fill="#D2D3D5" />
<rect x="42" y="23" width="1" height="1" fill="#D2D3D5" />
<rect x="43" y="23" width="1" height="1" fill="#D2D3D5" />
<rect x="44" y="23" width="1" height="1" fill="#D2D3D5" />
<rect x="45" y="23" width="1" height="1" fill="#D2D3D5" />
<rect x="46" y="23" width="1" height="1" fill="#D2D3D5" />
<rect x="1" y="24" width="1" height="1" fill="#D2D3D5" />
<rect x="2" y="24" width="1" height="1" fill="#D2D3D5" />
<rect x="3" y="24" width="1" height="1" fill="#D2D3D5" />
<rect x="4" y="24" width="1" height="1" fill="#D2D3D5" />
<rect x="5" y="24" width="1" height="1" fill="#D2D3D5" />
<rect x="6" y="24" width="1" height="1" fill="#D2D3D5" />
<rect x="7" y="24" width="1" height="1" fill="#D2D3D5" />
<rect x="8" y="24" width="1" height="1" fill="#D2D3D5" />
<rect x="9" y="24" width="1" height="1" fill="#D2D3D5" />
<rect x="10" y="24" width="1" height="1" fill="#D2D3D5" />
<rect x="11" y="24" width="1" height="1" fill="#D2D3D5" />
<rect x="12" y="24" width="1" height="1" fill="#D2D3D5" />
<rect x="13" y="24" width="1" height="1" fill="#D2D3D5" />
<rect x="14" y="24" width="1" height="1" fill="#D2D3D5" />
<rect x="17" y="24" width="1" height="1" fill="#D2D3D5" />
<rect x="18" y="24" width="1" height="1" fill="#D2D3D5" />
<rect x="19" y="24" width="1" height="1" fill="#D2D3D5" />
<rect x="20" y="24" width="1" height="1" fill="#D2D3D5" />
<rect x="21" y="24" width="1" height="1" fill="#D2D3D5" />
<rect x="22" y="24" width="1" height="1" fill="#D2D3D5" />
<rect x="23" y="24" width="1" height="1" fill="#D2D3D5" />
<rect x="24" y="24" width="1" height="1" fill="#D2D3D5" />
<rect x="25" y="24" width="1" height="1" fill="#D2D3D5" />
<rect x="26" y="24" width="1" height="1" fill="#D2D3D5" />
<rect x="27" y="24" width="1" height="1" fill="#D2D3D5" />
<rect x="28" y="24" width="1" height="1" fill="#D2D3D5" />
<rect x="29" y="24" width="1" height="1" fill="#D2D3D5" />
<rect x="30" y="24" width="1" height="1" fill="#D2D3D5" />
<rect x="33" y="24" width="1" height="1" fill="#D2D3D5" />
<rect x="34" y="24" width="1" height="1" fill="#D2D3D5" />
<rect x="35" y="24" width="1" height="1" fill="#D2D3D5" />
<rect x="36" y="24" width="1" height="1" fill="#D2D3D5" />
<rect x="37" y="24" width="1" height="1" fill="#D2D3D5" />
<rect x="38" y="24" width="1" height="1" fill="#D2D3D5" />
<rect x="39" y="24" width="1" height="1" fill="#D2D3D5" />
<rect x="40" y="24" width="1" height="1" fill="#D2D3D5" />
<rect x="41" y="24" width="1" height="1" fill="#D2D3D5" />
<rect x="42" y="24" width="1" height="1" fill="#D2D3D5" />
<rect x="43" y="24" width="1" height="1" fill="#D2D3D5" />
<rect x="44" y="24" width="1" height="1" fill="#D2D3D5" />
<rect x="45" y="24" width="1" height="1" fill="#D2D3D5" />
<rect x="46" y="24" width="1" height="1" fill="#D2D3D5" />
<rect x="1" y="25" width="1" height="1" fill="#D2D3D5" />
<rect x="2" y="25" width="1" height="1" fill="#D2D3D5" />
<rect x="3" y="25" width="1" height="1" fill="#D2D3D5" />
<rect x="4" y="25" width="1" height="1" fill="#D2D3D5" />
<rect x="5" y="25" width="1" height="1" fill="#D2D3D5" />
<rect x="6" y="25" width="1" height="1" fill="#D2D3D5" />
<rect x="7" y="25" width="1" height="1" fill="#D2D3D5" />
<rect x="8" y="25" width="1" height="1" fill="#D2D3D5" />
<rect x="9" y="25" width="1" height="1" fill="#D2D3D5" />
<rect x="10" y="25" width="1" height="1" fill="#D2D3D5" />
<rect x="11" y="25" width="1" height="1" fill="#D2D3D5" />
<rect x="12" y="25" width="1" height="1" fill="#D2D3D5" />
<rect x="13" y="25" width="1" height="1" fill="#D2D3D5" />
<rect x="14" y="25" width="1" height="1" fill="#D2D3D5" />
<rect x="17" y="25" width="1" height="1" fill="#D2D3D5" />
<rect x="18" y="25" width="1" height="1" fill="#D2D3D5" />
<rect x="19" y="25" width="1" height="1" fill="#D2D3D5" />
<rect x="20" y="25" width="1" height="1" fill="#D2D3D5" />
<rect x="21" y="25" width="1" height="1" fill="#D2D3D5" />
<rect x="22" y="25" width="1" height="1" fill="#D2D3D5" />
<rect x="23" y="25" width="1" height="1" fill="#D2D3D5" />
<rect x="24" y="25" width="1" height="1" fill="#D2D3D5" />
<rect x="25" y="25" width="1" height="1" fill="#D2D3D5" />
<rect x="26" y="25" width="1" height="1" fill="#D2D3D5" />
<rect x="27" y="25" width="1" height="1" fill="#D2D3D5" />
<rect x="28" y="25" width="1" height="1" fill="#D2D3D5" />
<rect x="29" y="25" width="1" height="1" fill="#D2D3D5" />
<rect x="30" y="25" width="1" height="1" fill="#D2D3D5" />
<rect x="33" y="25" width="1" height="1" fill="#D2D3D5" />
<rect x="34" y="25" width="1" height="1" fill="#D2D3D5" />
<rect x="35" y="25" width="1" height="1" fill="#D2D3D5" />
<rect x="36" y="25" width="1" height="1" fill="#D2D3D5" />
<rect x="37" y="25" width="1" height="1" fill="#D2D3D5" />
<rect x="38" y="25" width="1" height="1" fill="#D2D3D5" />
<rect x="39" y="25" width="1" height="1" fill="#D2D3D5" />
<rect x="40" y="25" width="1" height="1" fill="#D2D3D5" />
<rect x="41" y="25" width="1" height="1" fill="#D2D3D5" />
<rect x="42" y="25" width="1" height="1" fill="#D2D3D5" />
<rect x="43" y="25" width="1" height="1" fill="#D2D3D5" />
<rect x="44" y="25" width="1" height="1" fill="#D2D3D5" />
<rect x="45" y="25" width="1" height="1" fill="#D2D3D5" />
<rect x="46" y="25" width="1" height="1" fill="#D2D3D5" />
<rect x="2" y="26" width="1" height="1" fill="#D2D3D5" />
<rect x="3" y="26" width="1" height="1" fill="#D2D3D5" />
<rect x="4" y="26" width="1" height="1" fill="#D2D3D5" />
<rect x="5" y="26" width="1" height="1" fill="#D2D3D5" />
<rect x="6" y="26" width="1" height="1" fill="#D2D3D5" />
<rect x="7" y="26" width="1" height="1" fill="#D2D3D5" />
<rect x="8" y="26" width="1" height="1" fill="#D2D3D5" />
<rect x="9" y="26" width="1" height="1" fill="#D2D3D5" />
<rect x="10" y="26" width="1" height="1" fill="#D2D3D5" />
<rect x="11" y="26" width="1" height="1" fill="#D2D3D5" />
<rect x="12" y="26" width="1" height="1" fill="#D2D3D5" />
<rect x="13" y="26" width="1" height="1" fill="#D2D3D5" />
<rect x="18" y="26" width="1" height="1" fill="#D2D3D5" />
<rect x="19" y="26" width="1" height="1" fill="#D2D3D5" />
<rect x="20" y="26" width="1" height="1" fill="#D2D3D5" />
<rect x="21" y="26" width="1" height="1" fill="#D2D3D5" />
<rect x="22" y="26" width="1" height="1" fill="#D2D3D5" />
<rect x="23" y="26" width="1" height="1" fill="#D2D3D5" />
<rect x="24" y="26" width="1" height="1" fill="#D2D3D5" />
<rect x="25" y="26" width="1" height="1" fill="#D2D3D5" />
<rect x="26" y="26" width="1" height="1" fill="#D2D3D5" />
<rect x="27" y="26" width="1" height="1" fill="#D2D3D5" />
<rect x="28" y="26" width="1" height="1" fill="#D2D3D5" />
<rect x="29" y="26" width="1" height="1" fill="#D2D3D5" />
<rect x="34" y="26" width="1" height="1" fill="#D2D3D5" />
<rect x="35" y="26" width="1" height="1" fill="#D2D3D5" />
<rect x="36" y="26" width="1" height="1" fill="#D2D3D5" />
<rect x="37" y="26" width="1" height="1" fill="#D2D3D5" />
<rect x="38" y="26" width="1" height="1" fill="#D2D3D5" />
<rect x="39" y="26" width="1" height="1" fill="#D2D3D5" />
<rect x="40" y="26" width="1" height="1" fill="#D2D3D5" />
<rect x="41" y="26" width="1" height="1" fill="#D2D3D5" />
<rect x="42" y="26" width="1" height="1" fill="#D2D3D5" />
<rect x="43" y="26" width="1" height="1" fill="#D2D3D5" />
<rect x="44" y="26" width="1" height="1" fill="#D2D3D5" />
<rect x="45" y="26" width="1" height="1" fill="#D2D3D5" />
<rect x="2" y="27" width="1" height="1" fill="#D2D3D5" />
<rect x="3" y="27" width="1" height="1" fill="#D2D3D5" />
<rect x="4" y="27" width="1" height="1" fill="#D2D3D5" />
<rect x="5" y="27" width="1" height="1" fill="#D2D3D5" />
<rect x="6" y="27" width="1" height="1" fill="#D2D3D5" />
<rect x="7" y="27" width="1" height="1" fill="#D2D3D5" />
<rect x="8" y="27" width="1" height="1" fill="#D2D3D5" />
<rect x="9" y="27" width="1" height="1" fill="#D2D3D5" />
<rect x="10" y="27" width="1" height="1" fill="#D2D3D5" />
<rect x="11" y="27" width="1" height="1" fill="#D2D3D5" />
<rect x="12" y="27" width="1" height="1" fill="#D2D3D5" />
<rect x="13" y="27" width="1" height="1" fill="#D2D3D5" />
<rect x="18" y="27" width="1" height="1" fill="#D2D3D5" />
<rect x="19" y="27" width="1" height="1" fill="#D2D3D5" />
<rect x="20" y="27" width="1" height="1" fill="#D2D3D5" />
<rect x="21" y="27" width="1" height="1" fill="#D2D3D5" />
<rect x="22" y="27" width="1" height="1" fill="#D2D3D5" />
<rect x="23" y="27" width="1" height="1" fill="#D2D3D5" />
<rect x="24" y="27" width="1" height="1" fill="#D2D3D5" />
<rect x="25" y="27" width="1" height="1" fill="#D2D3D5" />
<rect x="26" y="27" width="1" height="1" fill="#D2D3D5" />
<rect x="27" y="27" width="1" height="1" fill="#D2D3D5" />
<rect x="28" y="27" width="1" height="1" fill="#D2D3D5" />
<rect x="29" y="27" width="1" height="1" fill="#D2D3D5" />
<rect x="34" y="27" width="1" height="1" fill="#D2D3D5" />
<rect x="35" y="27" width="1" height="1" fill="#D2D3D5" />
<rect x="36" y="27" width="1" height="1" fill="#D2D3D5" />
<rect x="37" y="27" width="1" height="1" fill="#D2D3D5" />
<rect x="38" y="27" width="1" height="1" fill="#D2D3D5" />
<rect x="39" y="27" width="1" height="1" fill="#D2D3D5" />
<rect x="40" y="27" width="1" height="1" fill="#D2D3D5" />
<rect x="41" y="27" width="1" height="1" fill="#D2D3D5" />
<rect x="42" y="27" width="1" height="1" fill="#D2D3D5" />
<rect x="43" y="27" width="1" height="1" fill="#D2D3D5" />
<rect x="44" y="27" width="1" height="1" fill="#D2D3D5" />
<rect x="45" y="27" width="1" height="1" fill="#D2D3D5" />
<rect x="3" y="28" width="1" height="1" fill="#D2D3D5" />
<rect x="4" y="28" width="1" height="1" fill="#D2D3D5" />
<rect x="5" y="28" width="1" height="1" fill="#D2D3D5" />
<rect x="6" y="28" width="1" height="1" fill="#D2D3D5" />
<rect x="7" y="28" width="1" height="1" fill="#D2D3D5" />
<rect x="8" y="28" width="1" height="1" fill="#D2D3D5" />
<rect x="9" y="28" width="1" height="1" fill="#D2D3D5" />
<rect x="10" y="28" width="1" height="1" fill="#D2D3D5" />
<rect x="11" y="28" width="1" height="1" fill="#D2D3D5" />
<rect x="12" y="28" width="1" height="1" fill="#D2D3D5" />
<rect x="19" y="28" width="1" height="1" fill="#D2D3D5" />
<rect x="20" y="28" width="1" height="1" fill="#D2D3D5" />
<rect x="21" y="28" width="1" height="1" fill="#D2D3D5" />
<rect x="22" y="28" width="1" height="1" fill="#D2D3D5" />
<rect x="23" y="28" width="1" height="1" fill="#D2D3D5" />
<rect x="24" y="28" width="1" height="1" fill="#D2D3D5" />
<rect x="25" y="28" width="1" height="1" fill="#D2D3D5" />
<rect x="26" y="28" width="1" height="1" fill="#D2D3D5" />
<rect x="27" y="28" width="1" height="1" fill="#D2D3D5" />
<rect x="28" y="28" width="1" height="1" fill="#D2D3D5" />
<rect x="35" y="28" width="1" height="1" fill="#D2D3D5" />
<rect x="36" y="28" width="1" height="1" fill="#D2D3D5" />
<rect x="37" y="28" width="1" height="1" fill="#D2D3D5" />
<rect x="38" y="28" width="1" height="1" fill="#D2D3D5" />
<rect x="39" y="28" width="1" height="1" fill="#D2D3D5" />
<rect x="40" y="28" width="1" height="1" fill="#D2D3D5" />
<rect x="41" y="28" width="1" height="1" fill="#D2D3D5" />
<rect x="42" y="28" width="1" height="1" fill="#D2D3D5" />
<rect x="43" y="28" width="1" height="1" fill="#D2D3D5" />
<rect x="44" y="28" width="1" height="1" fill="#D2D3D5" />
<rect x="4" y="29" width="1" height="1" fill="#D2D3D5" />
<rect x="5" y="29" width="1" height="1" fill="#D2D3D5" />
<rect x="6" y="29" width="1" height="1" fill="#D2D3D5" />
<rect x="7" y="29" width="1" height="1" fill="#D2D3D5" />
<rect x="8" y="29" width="1" height="1" fill="#D2D3D5" />
<rect x="9" y="29" width="1" height="1" fill="#D2D3D5" />
<rect x="10" y="29" width="1" height="1" fill="#D2D3D5" />
<rect x="11" y="29" width="1" height="1" fill="#D2D3D5" />
<rect x="20" y="29" width="1" height="1" fill="#D2D3D5" />
<rect x="21" y="29" width="1" height="1" fill="#D2D3D5" />
<rect x="22" y="29" width="1" height="1" fill="#D2D3D5" />
<rect x="23" y="29" width="1" height="1" fill="#D2D3D5" />
<rect x="24" y="29" width="1" height="1" fill="#D2D3D5" />
<rect x="25" y="29" width="1" height="1" fill="#D2D3D5" />
<rect x="26" y="29" width="1" height="1" fill="#D2D3D5" />
<rect x="27" y="29" width="1" height="1" fill="#D2D3D5" />
<rect x="36" y="29" width="1" height="1" fill="#D2D3D5" />
<rect x="37" y="29" width="1" height="1" fill="#D2D3D5" />
<rect x="38" y="29" width="1" height="1" fill="#D2D3D5" />
<rect x="39" y="29" width="1" height="1" fill="#D2D3D5" />
<rect x="40" y="29" width="1" height="1" fill="#D2D3D5" />
<rect x="41" y="29" width="1" height="1" fill="#D2D3D5" />
<rect x="42" y="29" width="1" height="1" fill="#D2D3D5" />
<rect x="43" y="29" width="1" height="1" fill="#D2D3D5" />
<rect x="6" y="30" width="1" height="1" fill="#D2D3D5" />
<rect x="7" y="30" width="1" height="1" fill="#D2D3D5" />
<rect x="8" y="30" width="1" height="1" fill="#D2D3D5" />
<rect x="9" y="30" width="1" height="1" fill="#D2D3D5" />
<rect x="22" y="30" width="1" height="1" fill="#D2D3D5" />
<rect x="23" y="30" width="1" height="1" fill="#D2D3D5" />
<rect x="24" y="30" width="1" height="1" fill="#D2D3D5" />
<rect x="25" y="30" width="1" height="1" fill="#D2D3D5" />
<rect x="38" y="30" width="1" height="1" fill="#D2D3D5" />
<rect x="39" y="30" width="1" height="1" fill="#D2D3D5" />
<rect x="40" y="30" width="1" height="1" fill="#D2D3D5" />
<rect x="41" y="30" width="1" height="1" fill="#D2D3D5" />
</svg>