<?xml version="1.0" encoding="UTF-8" ?>
<svg version="1.1" width="27" height="27" xmlns="http://www.w3.org/2000/svg" shape-rendering="crispEdges">
<rect x="1" y="0" width="13" height="1" fill="#D2D3D5" />
<rect x="18" y="0" width="9" height="1" fill="#D2D3D5" />
<rect x="0" y="1" width="1" height="25" fill="#D2D3D5" />
<rect x="1" y="1" width="13" height="1" fill="#FFFFFF" />
<rect x="14" y="1" width="1" height="2" fill="#D2D3D5" />
<rect x="19" y="1" width="1" height="1" fill="#D2D3D5" />
<rect x="20" y="1" width="6" height="1" fill="#FFFFFF" />
<rect x="26" y="1" width="1" height="8" fill="#D2D3D5" />
<rect x="1" y="2" width="1" height="24" fill="#FFFFFF" />
<rect x="2" y="2" width="12" height="1" fill="#D2D3D5" />
<rect x="20" y="2" width="1" height="1" fill="#D2D3D5" />
<rect x="21" y="2" width="5" height="1" fill="#FFFFFF" />
<rect x="2" y="3" width="1" height="22" fill="#D2D3D5" />
<rect x="21" y="3" width="1" height="1" fill="#D2D3D5" />
<rect x="22" y="3" width="4" height="2" fill="#FFFFFF" />
<rect x="20" y="4" width="1" height="1" fill="#D2D3D5" />
<rect x="21" y="4" width="1" height="3" fill="#FFFFFF" />
<rect x="19" y="5" width="1" height="1" fill="#D2D3D5" />
<rect x="20" y="5" width="1" height="3" fill="#FFFFFF" />
<rect x="22" y="5" width="1" height="1" fill="#FFFFFF" />
<rect x="23" y="5" width="1" height="1" fill="#D2D3D5" />
<rect x="24" y="5" width="2" height="1" fill="#FFFFFF" />
<rect x="18" y="6" width="1" height="1" fill="#D2D3D5" />
<rect x="19" y="6" width="1" height="3" fill="#FFFFFF" />
<rect x="22" y="6" width="1" height="1" fill="#D2D3D5" />
<rect x="24" y="6" width="1" height="1" fill="#D2D3D5" />
<rect x="25" y="6" width="1" height="1" fill="#FFFFFF" />
<rect x="17" y="7" width="1" height="1" fill="#D2D3D5" />
<rect x="18" y="7" width="1" height="3" fill="#FFFFFF" />
<rect x="21" y="7" width="1" height="1" fill="#D2D3D5" />
<rect x="25" y="7" width="1" height="1" fill="#D2D3D5" />
<rect x="16" y="8" width="1" height="1" fill="#D2D3D5" />
<rect x="17" y="8" width="1" height="3" fill="#FFFFFF" />
<rect x="20" y="8" width="1" height="1" fill="#D2D3D5" />
<rect x="15" y="9" width="1" height="1" fill="#D2D3D5" />
<rect x="16" y="9" width="1" height="3" fill="#FFFFFF" />
<rect x="19" y="9" width="1" height="1" fill="#D2D3D5" />
<rect x="14" y="10" width="1" height="1" fill="#D2D3D5" />
<rect x="15" y="10" width="1" height="3" fill="#FFFFFF" />
<rect x="18" y="10" width="1" height="1" fill="#D2D3D5" />
<rect x="13" y="11" width="1" height="1" fill="#D2D3D5" />
<rect x="14" y="11" width="1" height="3" fill="#FFFFFF" />
<rect x="17" y="11" width="1" height="1" fill="#D2D3D5" />
<rect x="12" y="12" width="1" height="2" fill="#D2D3D5" />
<rect x="13" y="12" width="1" height="2" fill="#FFFFFF" />
<rect x="16" y="12" width="1" height="1" fill="#D2D3D5" />
<rect x="24" y="12" width="2" height="1" fill="#D2D3D5" />
<rect x="15" y="13" width="1" height="1" fill="#D2D3D5" />
<rect x="24" y="13" width="1" height="12" fill="#D2D3D5" />
<rect x="25" y="13" width="1" height="13" fill="#FFFFFF" />
<rect x="26" y="13" width="1" height="13" fill="#D2D3D5" />
<rect x="13" y="14" width="2" height="1" fill="#D2D3D5" />
<rect x="3" y="24" width="21" height="1" fill="#D2D3D5" />
<rect x="2" y="25" width="23" height="1" fill="#FFFFFF" />
<rect x="1" y="26" width="25" height="1" fill="#D2D3D5" />
</svg>